HIERARCHY
ROOT Hips
{
	OFFSET 0.000000 0.000000 0.000000 
	CHANNELS 6 Xposition Yposition Zposition Zrotation Yrotation Xrotation
	JOINT LeftUpLeg
	{
		OFFSET 1.363060 -1.794630 0.839290 
		CHANNELS 3 Zrotation Yrotation Xrotation
		JOINT LeftLeg
		{
			OFFSET 2.448110 -6.726130 0.000000 
			CHANNELS 3 Zrotation Yrotation Xrotation
			JOINT LeftFoot
			{
				OFFSET 2.562200 -7.039590 0.000000 
				CHANNELS 3 Zrotation Yrotation Xrotation
				JOINT LeftToeBase
				{
					OFFSET 0.157640 -0.433110 2.322550 
					CHANNELS 3 Zrotation Yrotation Xrotation
					End Site
					{
						OFFSET 0.000000 0.000000 0.000000 
					}
				}
			}
		}
	}
	JOINT RightUpLeg
	{
		OFFSET -1.305520 -1.794630 0.839290 
		CHANNELS 3 Zrotation Yrotation Xrotation
		JOINT RightLeg
		{
			OFFSET -2.542530 -6.985550 0.000000 
			CHANNELS 3 Zrotation Yrotation Xrotation
			JOINT RightFoot
			{
				OFFSET -2.568260 -7.056230 0.000000 
				CHANNELS 3 Zrotation Yrotation Xrotation
				JOINT RightToeBase
				{
					OFFSET -0.164730 -0.452590 2.363150 
					CHANNELS 3 Zrotation Yrotation Xrotation
					End Site
					{
						OFFSET 0.000000 0.000000 0.000000 
					}
				}
			}
		}
	}
	JOINT Spine
	{
		OFFSET 0.028270 2.035590 -0.193380 
		CHANNELS 3 Zrotation Yrotation Xrotation
		JOINT Spine1
		{
			OFFSET 0.056720 2.048850 -0.042750 
			CHANNELS 3 Zrotation Yrotation Xrotation
			JOINT Neck1
			{
				OFFSET -0.054170 1.746240 0.172020 
				CHANNELS 3 Zrotation Yrotation Xrotation
				JOINT Head
				{
					OFFSET 0.104070 1.761360 -0.123970 
					CHANNELS 3 Zrotation Yrotation Xrotation
					End Site
					{
						OFFSET 0.000000 0.000000 0.000000 
					}
				}
			}
			JOINT LeftArm
			{
				OFFSET 3.362410 1.200890 -0.311210 
				CHANNELS 3 Zrotation Yrotation Xrotation
				JOINT LeftForeArm
				{
					OFFSET 4.983000 -0.000000 -0.000000 
					CHANNELS 3 Zrotation Yrotation Xrotation
					JOINT LeftHand
					{
						OFFSET 3.483560 -0.000000 -0.000000 
						CHANNELS 3 Zrotation Yrotation Xrotation
						JOINT LeftHandIndex1
						{
							OFFSET 0.715260 -0.000000 -0.000000 
							CHANNELS 3 Zrotation Yrotation Xrotation
							End Site
							{
								OFFSET 0.000000 0.000000 0.000000 
							}
						}
					}
				}
			}
			JOINT RightArm
			{
				OFFSET -3.136600 1.374050 -0.404650 
				CHANNELS 3 Zrotation Yrotation Xrotation
				JOINT RightForeArm
				{
					OFFSET -5.241900 -0.000000 -0.000000 
					CHANNELS 3 Zrotation Yrotation Xrotation
					JOINT RightHand
					{
						OFFSET -3.444170 -0.000000 -0.000000 
						CHANNELS 3 Zrotation Yrotation Xrotation
						JOINT RightHandIndex1
						{
							OFFSET -0.622530 -0.000000 -0.000000 
							CHANNELS 3 Zrotation Yrotation Xrotation
							End Site
							{
								OFFSET 0.000000 0.000000 0.000000 
							}
						}
					}
				}
			}
		}
	}
}
MOTION
Frames: 15
Frame Time: 0.041667
2.695154 16.827656 8.522983 1.029247 -14.140330 102.204580 -13.204777 6.048701 -42.056206 1.649605 13.696177 34.989024 3.473762 2.485995 42.220034 3.929800 -12.066400 -35.967100 17.111051 3.871869 -44.039906 -3.914735 -17.283479 40.383164 -1.846931 -12.207657 42.568265 -1.847100 -8.540000 24.366700 -1.825589 7.232880 -3.839294 -23.282247 4.639357 11.272707 8.388738 3.241016 21.007487 7.312300 1.028600 17.225600 72.393265 -18.347847 -76.497441 4.712500 -14.427592 -0.444363 -0.770938 -0.454257 7.199762 -7.125000 0.000000 0.000000 -41.931898 4.084561 -58.213398 -7.568529 16.375485 -1.718143 9.374057 3.853444 18.313630 7.125000 0.000000 0.000000 
2.638160 16.830579 8.512416 1.034075 -14.158489 102.001460 -13.703415 6.483278 -42.537373 2.031398 14.044676 36.183374 3.518370 2.137857 42.689578 3.456900 -11.400300 -33.642300 17.235399 4.153309 -44.683807 -4.520857 -17.831895 42.140890 -1.819920 -12.071083 42.486104 -2.000000 -8.866100 25.377300 -1.899487 8.139809 -3.790580 -22.413881 5.120641 11.643260 8.230774 2.959173 20.393601 6.514800 1.213800 16.288100 76.002458 -18.285039 -103.992215 6.373055 -19.760375 -1.550822 -0.674903 -1.338972 -3.689797 -7.125000 0.000000 0.000000 -44.608745 5.038759 -77.055137 -5.456967 16.848221 -1.834496 4.157839 5.377263 11.149174 7.125000 0.000000 0.000000 
2.579929 16.835975 8.505559 1.000187 -14.219051 101.833132 -14.241523 6.936930 -43.033670 2.443422 14.391882 37.283200 3.479559 2.200475 43.189956 2.770900 -10.314500 -30.001500 17.260681 4.420005 -45.253283 -5.075224 -18.299284 43.658744 -1.824168 -12.046748 42.579898 -2.115500 -9.102700 26.117000 -1.898571 8.435406 -3.766650 -21.682627 5.326906 11.985652 7.222704 -2.371998 21.632804 5.444600 -0.711000 19.569100 76.265891 -15.102997 -99.731811 5.711788 -18.417254 -1.019441 -1.868415 -0.811981 -9.843504 -7.125000 0.000000 0.000000 -44.637686 4.930064 -76.449365 -5.769510 17.060410 -1.949039 4.126769 6.381829 9.230656 7.125000 0.000000 0.000000 
2.520686 16.845193 8.504885 1.025347 -14.160644 101.710412 -14.674256 7.304483 -43.531589 2.809521 14.705690 38.370155 3.498464 1.945398 43.524704 2.283500 -9.433100 -27.159800 17.336716 4.731254 -45.822607 -5.593190 -18.730512 45.068543 -1.794813 -12.094207 42.564995 -2.210800 -9.292000 26.713200 -1.870847 8.291376 -3.764209 -21.707975 5.256474 11.911491 6.947289 -3.108284 21.799458 5.110100 -0.934200 19.933500 75.871804 -14.799934 -97.215800 5.459133 -17.837034 -0.876893 -1.971276 -0.768174 -9.560773 -7.125000 0.000000 0.000000 -44.442804 4.858919 -75.267797 -5.891547 16.992231 -1.888405 4.545113 5.843301 10.025721 7.125000 0.000000 0.000000 
2.462567 16.852725 8.500500 1.044149 -14.143106 101.566397 -15.111776 7.666166 -43.995375 3.201347 15.013170 39.414515 3.478522 1.917368 43.916870 1.772700 -8.375500 -23.860700 17.370122 4.996618 -46.351060 -6.087253 -19.121006 46.384527 -1.796081 -12.129774 42.653129 -2.297700 -9.460300 27.246200 -1.864185 8.360101 -3.754016 -21.460774 5.300208 11.955677 6.640036 -4.492763 22.041077 4.718800 -1.369600 20.607000 76.062570 -14.000887 -97.990148 5.452552 -17.880045 -0.892685 -2.147248 -0.703019 -11.694045 -7.125000 0.000000 0.000000 -44.672510 4.872546 -76.221506 -5.856763 17.105197 -1.962414 4.110947 6.345212 8.804637 7.125000 0.000000 0.000000 
2.404449 16.861156 8.498252 1.074415 -14.107453 101.434831 -15.514513 7.997044 -44.442068 3.588586 15.302268 40.404881 3.448197 1.957498 44.278176 1.298500 -7.219600 -20.367500 17.388239 5.248225 -46.827155 -6.525672 -19.457780 47.529652 -1.812459 -12.185839 42.794529 -2.364400 -9.587000 27.649400 -1.850625 8.321457 -3.748897 -21.355248 5.289928 11.949846 6.418997 -5.353789 22.222155 4.475000 -1.646500 21.074500 75.972589 -13.518889 -97.132970 5.356753 -17.649986 -0.843771 -2.271316 -0.674926 -12.541968 -7.125000 0.000000 0.000000 -44.729668 4.860479 -76.239150 -5.886792 17.143262 -1.972334 4.104735 6.419336 8.521915 7.125000 0.000000 0.000000 
2.346218 16.870374 8.498027 1.114258 -14.063323 101.309501 -15.886086 8.297739 -44.863045 3.966692 15.570221 41.329835 3.409647 2.069011 44.620524 0.878800 -5.976200 -16.715300 17.385455 5.489523 -47.248582 -6.910598 -19.747928 48.525794 -1.844214 -12.229100 42.973046 -2.403900 -9.661000 27.885700 -1.836245 8.241429 -3.747545 -21.347202 5.262371 11.925809 6.316956 -5.578809 22.287096 4.373400 -1.715900 21.241400 75.863159 -13.390383 -96.840114 5.313873 -17.553796 -0.824309 -2.296549 -0.665628 -12.542546 -7.125000 0.000000 0.000000 -44.802533 4.864763 -76.375147 -5.879078 17.164247 -1.969694 4.102116 6.399674 8.427734 7.125000 0.000000 0.000000 
2.288099 16.880154 8.499601 1.154844 -14.012631 101.190181 -16.224006 8.573724 -45.255734 4.330127 15.813255 42.166083 3.361292 2.275435 44.949798 0.519900 -4.621100 -12.831000 17.360724 5.718975 -47.593254 -7.226212 -19.983058 49.322826 -1.891553 -12.284291 43.202300 -2.412500 -9.677000 27.937000 -1.824112 8.154243 -3.751642 -21.347578 5.246747 11.941748 6.274939 -5.571617 22.239150 4.405600 -1.746300 21.703100 75.752828 -13.379639 -96.742830 5.302342 -17.519697 -0.817494 -2.285922 -0.664950 -12.312425 -7.125000 0.000000 0.000000 -44.886701 4.873742 -76.558920 -5.858084 17.184860 -1.963846 4.101195 6.369867 8.409770 7.125000 0.000000 0.000000 
2.230093 16.890159 8.502749 1.188138 -13.973773 101.083796 -16.540265 8.830383 -45.616783 4.671761 16.028497 42.897846 3.304681 2.578709 45.268231 0.242500 -3.168800 -8.748900 17.294901 5.941617 -47.846159 -7.451421 -20.159091 49.904278 -1.981257 -12.230295 43.515011 -2.419000 -9.689100 27.975800 -1.810982 8.067341 -3.751850 -21.372103 5.217318 11.917940 6.229362 -5.536461 22.260797 4.379600 -1.738000 21.763700 75.652267 -13.391157 -96.625501 5.301306 -17.502396 -0.813690 -2.273018 -0.665305 -12.198809 -7.125000 0.000000 0.000000 -44.973393 4.894785 -76.693828 -5.846289 17.212338 -1.959750 4.099050 6.337787 8.400236 7.125000 0.000000 0.000000 
2.172536 16.899939 8.507358 1.209040 -13.945496 100.990655 -16.831309 9.070419 -45.941580 4.984061 16.211720 43.501201 3.241963 2.987145 45.588724 0.064700 -1.641200 -4.515000 17.188498 6.161076 -47.998081 -7.582045 -20.275365 50.253432 -2.103066 -12.095751 43.891525 -2.425800 -9.701800 28.016400 -1.799117 7.988863 -3.751764 -21.390556 5.191683 11.899025 6.189840 -5.496047 22.285472 4.362300 -1.730200 21.824600 75.559076 -13.399415 -96.490398 5.308659 -17.494516 -0.811761 -2.259018 -0.666955 -12.228568 -7.125000 0.000000 0.000000 -45.062318 4.924217 -76.830567 -5.835244 17.243793 -1.956720 4.098515 6.310850 8.454844 7.125000 0.000000 0.000000 
2.115317 16.909495 8.513541 1.212113 -13.931230 100.912411 -17.094319 9.294923 -46.221865 5.255337 16.356961 43.946945 3.177558 3.497185 45.922816 0.000200 -0.088900 -0.244200 17.039429 6.376806 -48.041438 -7.612091 -20.330097 50.353601 -2.254270 -11.887774 44.327739 -2.436600 -9.721600 28.079900 -1.788922 7.915086 -3.751579 -21.402624 5.167880 11.884156 6.168939 -5.431227 22.309244 4.370000 -1.718800 21.875500 75.429954 -13.382484 -96.302042 5.304505 -17.462555 -0.805664 -2.254535 -0.673440 -12.420380 -7.125000 0.000000 0.000000 -45.154955 4.959505 -76.945436 -5.828969 17.281497 -1.954977 4.101794 6.298929 8.515149 7.125000 0.000000 0.000000 
2.058322 16.918151 8.522084 1.194496 -13.938822 100.851793 -17.330117 9.505960 -46.449643 5.470356 16.456914 44.202826 3.119621 4.088605 46.286952 0.049000 1.428500 3.928600 16.845211 6.580606 -47.972431 -7.540045 -20.320442 50.188362 -2.425381 -11.647423 44.810656 -2.440900 -9.729600 28.105400 -1.780963 7.850417 -3.751251 -21.410679 5.147746 11.875283 6.161625 -5.348489 22.335017 4.394100 -1.703700 21.922500 75.310803 -13.369380 -96.126880 5.306923 -17.440033 -0.801807 -2.246412 -0.677128 -12.618333 -7.125000 0.000000 0.000000 -45.251813 5.004643 -77.093117 -5.818085 17.320795 -1.953916 4.109096 6.304412 8.582893 7.125000 0.000000 0.000000 
2.001665 16.925570 8.532876 1.157536 -13.956787 100.812747 -17.520922 9.705238 -46.614259 5.612246 16.502927 44.232747 3.079685 4.729373 46.704938 0.195500 2.847700 7.854900 16.622102 6.768368 -47.791712 -7.369851 -20.244782 49.748250 -2.594743 -11.457027 45.298369 -2.428800 -9.707200 28.033800 -1.774925 7.790414 -3.751143 -21.420423 5.129063 11.872435 6.169240 -5.244756 22.362464 4.437100 -1.684300 21.964400 75.183132 -13.355652 -95.913376 5.307064 -17.408131 -0.796448 -2.240578 -0.681124 -12.808392 -7.125000 0.000000 0.000000 -45.353509 5.062623 -77.314640 -5.793126 17.356444 -1.951404 4.122393 6.312432 8.663718 7.125000 0.000000 0.000000 
1.945233 16.931191 8.546253 1.102656 -13.977750 100.803398 -17.651804 9.891565 -46.709949 5.661969 16.486376 44.006877 3.071698 5.364805 47.192526 0.412500 4.122900 11.422800 16.384816 6.933441 -47.508234 -7.112634 -20.102316 49.028250 -2.732833 -11.440021 45.736043 -2.359600 -9.578000 27.620700 -1.769934 7.741209 -3.750744 -21.426766 5.114356 11.885007 6.169054 -5.155611 22.400233 4.466000 -1.666200 22.022000 75.079562 -13.369568 -95.731172 5.312985 -17.389712 -0.793911 -2.228296 -0.679122 -12.835167 -7.125000 0.000000 0.000000 -45.454154 5.132725 -77.613475 -5.754165 17.385465 -1.947813 4.137376 6.313542 8.738781 7.125000 0.000000 0.000000 
1.889362 16.934338 8.562554 1.031119 -14.009075 100.825027 -17.721014 10.059278 -46.726150 5.607060 16.400840 43.503904 3.103900 5.969649 47.763541 0.674100 5.250300 14.623700 16.127121 7.065785 -47.128372 -6.769870 -19.888942 48.031718 -2.834851 -11.594954 46.100931 -2.225600 -9.321000 26.804600 -1.766536 7.694078 -3.751934 -21.444181 5.096995 11.899570 6.169232 -5.057876 22.443832 4.493800 -1.644200 22.084800 75.006409 -13.418693 -95.536309 5.330565 -17.387724 -0.794208 -2.207804 -0.672274 -12.712660 -7.125000 0.000000 0.000000 -45.554210 5.214219 -77.966242 -5.703841 17.410411 -1.943888 4.152024 6.315927 8.728133 7.125000 0.000000 0.000000 
